<svg width="300" height="300" viewBox="0 0 300 300" fill="none" xmlns="http://www.w3.org/2000/svg">
<rect width="300" height="300" rx="150" fill="#0052FF"/>
<path fill-rule="evenodd" clip-rule="evenodd" d="M229.55 92.5917C231.893 94.9358 233.21 98.1147 233.21 101.429C233.21 104.744 231.893 107.923 229.55 110.267L135.858 203.958C134.62 205.197 133.15 206.179 131.532 206.849C129.914 207.52 128.18 207.865 126.429 207.865C124.678 207.865 122.944 207.52 121.326 206.849C119.708 206.179 118.238 205.197 117 203.958L70.4499 157.417C69.256 156.264 68.3037 154.884 67.6486 153.359C66.9935 151.834 66.6487 150.194 66.6343 148.534C66.6198 146.875 66.9361 145.229 67.5646 143.692C68.1931 142.156 69.1213 140.76 70.295 139.587C71.4686 138.413 72.8643 137.485 74.4005 136.856C75.9367 136.228 77.5827 135.912 79.2424 135.926C80.9021 135.941 82.5424 136.285 84.0674 136.94C85.5925 137.596 86.9718 138.548 88.1249 139.742L126.425 178.042L211.867 92.5917C213.027 91.4302 214.406 90.5087 215.923 89.88C217.44 89.2513 219.066 88.9277 220.708 88.9277C222.35 88.9277 223.977 89.2513 225.494 89.88C227.011 90.5087 228.389 91.4302 229.55 92.5917Z" fill="#E3ECFF"/>
</svg>
